<?xml version="1.0" encoding="UTF-8" standalone="no"?>
<!-- Created with Inkscape (http://www.inkscape.org/) -->

<svg
   xmlns:dc="http://purl.org/dc/elements/1.1/"
   xmlns:cc="http://creativecommons.org/ns#"
   xmlns:rdf="http://www.w3.org/1999/02/22-rdf-syntax-ns#"
   xmlns:svg="http://www.w3.org/2000/svg"
   xmlns="http://www.w3.org/2000/svg"
   xmlns:sodipodi="http://sodipodi.sourceforge.net/DTD/sodipodi-0.dtd"
   xmlns:inkscape="http://www.inkscape.org/namespaces/inkscape"
   width="130.77975mm"
   height="130.77975mm"
   viewBox="0 0 130.77975 130.77975"
   version="1.1"
   id="svg832"
   inkscape:version="0.92.4 (unknown)"
   sodipodi:docname="docs_button.svg">
  <defs
     id="defs826" />
  <sodipodi:namedview
     id="base"
     pagecolor="#ffffff"
     bordercolor="#666666"
     borderopacity="1.0"
     inkscape:pageopacity="0.0"
     inkscape:pageshadow="2"
     inkscape:zoom="0.9899495"
     inkscape:cx="274.46108"
     inkscape:cy="327.17081"
     inkscape:document-units="mm"
     inkscape:current-layer="g3878"
     showgrid="true"
     inkscape:lockguides="true"
     showguides="true"
     inkscape:guide-bbox="true"
     guidetolerance="20"
     gridtolerance="10"
     fit-margin-top="0"
     fit-margin-left="0"
     fit-margin-right="0"
     fit-margin-bottom="0"
     inkscape:window-width="1920"
     inkscape:window-height="1004"
     inkscape:window-x="0"
     inkscape:window-y="0"
     inkscape:window-maximized="1">
    <sodipodi:guide
       position="31.537804,296.93645"
       orientation="0,1"
       id="guide953"
       inkscape:locked="true" />
    <sodipodi:guide
       position="-0.26727133,296.82203"
       orientation="1,0"
       id="guide955"
       inkscape:locked="true" />
    <inkscape:grid
       type="xygrid"
       id="grid957"
       originx="0"
       originy="-166.15669" />
    <sodipodi:guide
       position="130.77975,296.93646"
       orientation="1,0"
       id="guide5209"
       inkscape:locked="true" />
    <sodipodi:guide
       position="0,166.1567"
       orientation="0,1"
       id="guide5211"
       inkscape:locked="true" />
  </sodipodi:namedview>
  <metadata
     id="metadata829">
    <rdf:RDF>
      <cc:Work
         rdf:about="">
        <dc:format>image/svg+xml</dc:format>
        <dc:type
           rdf:resource="http://purl.org/dc/dcmitype/StillImage" />
        <dc:title />
      </cc:Work>
    </rdf:RDF>
  </metadata>
  <g
     inkscape:label="Layer 1"
     inkscape:groupmode="layer"
     id="layer1"
     transform="translate(0,-0.06355078)">
    <rect
       style="fill:#094971;fill-opacity:1;stroke-width:0.26458332"
       id="rect834"
       width="130.77975"
       height="130.77975"
       x="0"
       y="0.063550778"
       rx="17" />
    <g
       transform="matrix(0.26458333,0,0,0.26458333,18.599694,-154.26793)"
       id="layer1-5"
       inkscape:label="Layer 1"
       style="opacity:1;fill:#ffffff">
      <g
         style="fill:#ffffff;fill-opacity:1"
         transform="translate(-7.2877533,-6.3546821e-5)"
         id="g5310">
        <g
           style="fill:#ffffff;fill-opacity:1"
           id="g3990"
           transform="matrix(0.55753644,0,0,0.55753644,62.308135,1038.8762)"
           inkscape:export-filename="/home/anthony/secure/docs/rtd/assets/rtd-logo-2.png"
           inkscape:export-xdpi="90"
           inkscape:export-ydpi="90" />
        <g
           style="fill:#ffffff;fill-opacity:1"
           transform="matrix(8.4462802,0,0,8.4462802,-93.469267,-7827.1593)"
           id="g3878">
          <g
             style="fill:#ffffff;fill-opacity:1"
             id="g3857"
             transform="matrix(0.53955737,0,0,0.53955737,44.734613,1122.2527)">
            <path
               inkscape:connector-curvature="0"
               d="m -44.058976,-193.91237 a 1.6144056,1.6144056 0 0 0 -0.218748,3.15625 c 0,0 3.931695,1.30105 10.624998,1.84375 5.37469,0.43579 11.46875,-0.375 11.46875,-0.375 a 1.6144056,1.6144056 0 1 0 -0.40625,-3.1875 c 0,0 -5.9616,0.73707 -10.8125,0.34375 -6.38817,-0.51796 -9.875,-1.6875 -9.875,-1.6875 a 1.6144056,1.6144056 0 0 0 -0.78125,-0.0937 z m 0,-8 a 1.6144056,1.6144056 0 0 0 -0.218748,3.15625 c 0,0 3.931695,1.30105 10.624998,1.84375 5.37469,0.43579 11.46875,-0.375 11.46875,-0.375 a 1.6144056,1.6144056 0 1 0 -0.40625,-3.1875 c 0,0 -5.9616,0.73707 -10.8125,0.34375 -6.38817,-0.51796 -9.875,-1.6875 -9.875,-1.6875 a 1.6144056,1.6144056 0 0 0 -0.78125,-0.0937 z m 0,-8 a 1.6144056,1.6144056 0 0 0 -0.218748,3.15625 c 0,0 3.931695,1.30105 10.624998,1.84375 5.37469,0.43579 11.46875,-0.375 11.46875,-0.375 a 1.6144056,1.6144056 0 1 0 -0.40625,-3.1875 c 0,0 -5.9616,0.73707 -10.8125,0.34375 -6.38817,-0.51796 -9.875,-1.6875 -9.875,-1.6875 a 1.6144056,1.6144056 0 0 0 -0.78125,-0.0937 z m 0,-8 a 1.6144056,1.6144056 0 0 0 -0.218748,3.15625 c 0,0 3.931695,1.30105 10.624998,1.84375 5.37469,0.43579 11.46875,-0.375 11.46875,-0.375 a 1.6144056,1.6144056 0 1 0 -0.40625,-3.1875 c 0,0 -5.9616,0.73707 -10.8125,0.34375 -6.38817,-0.51796 -9.875,-1.6875 -9.875,-1.6875 a 1.6144056,1.6144056 0 0 0 -0.78125,-0.0937 z m -11.207887,-8.437 c -8.40722,0.0561 -11.53943,2.64505 -11.53943,2.64505 v 62.78378 c 0,0 3.05858,-2.64152 12.90556,-2.23813 9.846969,0.40339 11.878251,3.85528 23.979907,4.09839 12.10166,0.24311 15.14368,-1.86026 15.14368,-1.86026 l 0.1744,-64.00457 c 0,0 -5.44613,1.54139 -16.04474,1.62772 -10.598611,0.0863 -13.146076,-2.69614 -22.875387,-3.02292 -0.60808,-0.0204 -1.18351,-0.0328 -1.74399,-0.0291 z m 7.034105,4.09838 c 0,0 5.094377,1.68402 14.504212,2.15093 7.95302,0.39462 15.92848,-0.7848 15.92848,-0.7848 v 56.88326 c 0,0 -4.03666,2.11586 -14.12635,1.3952 -7.819332,-0.5585 -16.422609,-3.51706 -16.422609,-3.51706 z m -4.912245,1.4824 a 1.6277275,1.6277275 0 0 1 0,3.25545 c 0,0 -2.63499,0.0135 -4.24372,0.1744 -2.70103,0.2701 -4.53439,1.24986 -4.53439,1.24986 a 1.6251956,1.6251956 0 1 1 -1.51146,-2.87759 c 0,0 2.39161,-1.26521 5.72612,-1.59866 1.9268,-0.1927 4.56345,-0.20346 4.56345,-0.20346 z m -1.5696,8.02237 c 0.89978,-0.0228 1.5696,0 1.5696,0 a 1.625,1.625 0 0 1 0,3.22639 c 0,0 -2.63499,0.0135 -4.24372,0.17439 -2.70103,0.27011 -4.53439,1.24987 -4.53439,1.24987 a 1.6251955,1.6251955 0 0 1 -1.51146,-2.87759 c 0,0 2.39161,-1.26521 5.72612,-1.59866 0.9634,-0.0964 2.09408,-0.15162 2.99385,-0.1744 z m 1.5696,7.9933 a 1.62773,1.62773 0 0 1 0,3.25546 c 0,0 -2.63499,-0.0155 -4.24372,0.14533 -2.70103,0.2701 -4.53439,1.24986 -4.53439,1.24986 a 1.6251952,1.6251952 0 0 1 -1.51146,-2.87759 c 0,0 2.39161,-1.26521 5.72612,-1.59866 1.9268,-0.1927 4.56345,-0.1744 4.56345,-0.1744 z"
               style="color:#000000;font-style:normal;font-variant:normal;font-weight:normal;font-stretch:normal;font-size:medium;line-height:normal;font-family:Sans;-inkscape-font-specification:Sans;text-indent:0;text-align:start;text-decoration:none;text-decoration-line:none;letter-spacing:normal;word-spacing:normal;text-transform:none;writing-mode:lr-tb;direction:ltr;baseline-shift:baseline;text-anchor:start;display:inline;overflow:visible;visibility:visible;fill:#ffffff;fill-opacity:1;stroke:none;stroke-width:3.22848845;marker:none;enable-background:accumulate"
               id="path3929-8" />
          </g>
          <g
             id="text5298"
             style="font-style:normal;font-variant:normal;font-weight:normal;font-stretch:normal;font-size:32px;line-height:125%;font-family:Bitter;-inkscape-font-specification:Bitter;letter-spacing:-1.99000001px;word-spacing:0px;fill:#ffffff;stroke:none"
             transform="matrix(0.5684646,0,0,0.5684646,-80.115395,459.24412)">
            <path
               id="path3082"
               style="font-family:'Bree Serif';-inkscape-font-specification:'Bree Serif Bold';fill:#ffffff"
               d="m 177.64305,1038.8522 v -2.592 l 1.056,-0.096 c 0.61867,-0.064 0.928,-0.3627 0.928,-0.896 v -14.88 l -1.824,-0.096 v -2.72 h 8.768 c 3.13599,0 5.57865,0.832 7.328,2.496 1.77065,1.664 2.65598,4.128 2.656,7.392 -2e-5,2.0266 -0.26668,3.7973 -0.8,5.312 -0.53335,1.4933 -1.25868,2.6666 -2.176,3.52 -1.83468,1.7066 -4.11734,2.56 -6.848,2.56 h -9.088 m 5.888,-18.176 v 15.104 h 3.264 c 1.83466,0 3.26399,-0.6614 4.288,-1.984 1.02399,-1.3227 1.53599,-3.2427 1.536,-5.76 -10e-6,-4.9067 -2.08001,-7.36 -6.24,-7.36 h -2.848"
               inkscape:connector-curvature="0" />
            <path
               id="path3084"
               style="font-family:'Bree Serif';-inkscape-font-specification:'Bree Serif Bold';fill:#ffffff"
               d="m 205.62659,1036.5162 c 2.32532,0 3.48798,-1.8774 3.488,-5.632 -2e-5,-1.8987 -0.26668,-3.3387 -0.8,-4.32 -0.51201,-0.9813 -1.38668,-1.472 -2.624,-1.472 -1.21601,0 -2.11201,0.4693 -2.688,1.408 -0.57601,0.9387 -0.86401,2.2186 -0.864,3.84 -1e-5,3.008 0.55466,4.896 1.664,5.664 0.49066,0.3413 1.09866,0.512 1.824,0.512 m -7.36,-5.728 c 0,-1.5787 0.23466,-2.944 0.704,-4.096 0.46933,-1.1733 1.09866,-2.0693 1.888,-2.688 1.51466,-1.152 3.18932,-1.728 5.024,-1.728 1.27999,0 2.35732,0.2133 3.232,0.64 0.89598,0.4053 1.58932,0.8853 2.08,1.44 0.51198,0.5333 0.93865,1.3227 1.28,2.368 0.36265,1.024 0.54398,2.24 0.544,3.648 -2e-5,2.944 -0.71469,5.1733 -2.144,6.688 -1.42935,1.5146 -3.26401,2.272 -5.504,2.272 -2.21868,0 -3.95734,-0.7147 -5.216,-2.144 -1.25867,-1.4507 -1.888,-3.584 -1.888,-6.4"
               inkscape:connector-curvature="0" />
            <path
               id="path3086"
               style="font-family:'Bree Serif';-inkscape-font-specification:'Bree Serif Bold';fill:#ffffff"
               d="m 218.42846,1030.6282 c -1e-5,1.8133 0.34133,3.2213 1.024,4.224 0.68266,1.0026 1.66399,1.504 2.944,1.504 1.30132,0 2.58132,-0.4587 3.84,-1.376 l 1.376,2.464 c -1.51468,1.2373 -3.41335,1.856 -5.696,1.856 -2.28268,0 -4.08534,-0.7147 -5.408,-2.144 -1.30134,-1.4507 -1.952,-3.584 -1.952,-6.4 0,-2.816 0.74666,-4.928 2.24,-6.336 1.51466,-1.4293 3.21066,-2.144 5.088,-2.144 1.89865,0 3.65865,0.4373 5.28,1.312 v 4.16 l -2.944,0.224 v -1.536 c -1e-5,-0.576 -0.21335,-0.928 -0.64,-1.056 -0.40535,-0.1493 -0.83201,-0.224 -1.28,-0.224 -2.58134,0 -3.87201,1.824 -3.872,5.472"
               inkscape:connector-curvature="0" />
            <path
               id="path3088"
               style="font-family:'Bree Serif';-inkscape-font-specification:'Bree Serif Bold';fill:#ffffff"
               d="m 236.74521,1025.1882 c -0.51201,-0.192 -1.13068,-0.288 -1.856,-0.288 -0.72534,0 -1.31201,0.1707 -1.76,0.512 -0.42668,0.32 -0.64001,0.7253 -0.64,1.216 -1e-5,0.4693 0.0747,0.8427 0.224,1.12 0.17066,0.256 0.42666,0.48 0.768,0.672 0.53332,0.2773 1.17332,0.5226 1.92,0.736 0.74665,0.192 1.30132,0.352 1.664,0.48 0.36265,0.1066 0.81065,0.2986 1.344,0.576 0.55465,0.2773 0.97065,0.576 1.248,0.896 0.74665,0.7893 1.11998,1.8026 1.12,3.04 -2e-5,1.6 -0.58668,2.8586 -1.76,3.776 -1.15201,0.896 -2.62401,1.344 -4.416,1.344 -2.60268,0 -4.56534,-0.3307 -5.888,-0.992 v -4.448 l 2.88,-0.224 v 1.536 c -1e-5,0.9386 0.89599,1.408 2.688,1.408 1.79199,0 2.68799,-0.6507 2.688,-1.952 -1e-5,-0.4694 -0.16001,-0.8534 -0.48,-1.152 -0.29868,-0.2987 -0.59735,-0.5014 -0.896,-0.608 -0.29868,-0.1067 -0.66134,-0.2134 -1.088,-0.32 -0.40534,-0.1067 -0.81068,-0.2134 -1.216,-0.32 -0.38401,-0.1067 -0.81068,-0.2454 -1.28,-0.416 -0.44801,-0.192 -0.94934,-0.4587 -1.504,-0.8 -1.08801,-0.704 -1.63201,-1.8774 -1.632,-3.52 -1e-5,-1.664 0.58666,-2.944 1.76,-3.84 1.17333,-0.896 2.64532,-1.344 4.416,-1.344 1.79199,0 3.56265,0.4267 5.312,1.28 v 3.84 l -2.88,0.224 v -1.344 c -1e-5,-0.5333 -0.24535,-0.896 -0.736,-1.088"
               inkscape:connector-curvature="0" />
          </g>
        </g>
      </g>
    </g>
  </g>
</svg>
