<?xml version="1.0" encoding="UTF-8" standalone="no"?>
<!-- Created with Inkscape (http://www.inkscape.org/) -->

<svg
   xmlns:dc="http://purl.org/dc/elements/1.1/"
   xmlns:cc="http://creativecommons.org/ns#"
   xmlns:rdf="http://www.w3.org/1999/02/22-rdf-syntax-ns#"
   xmlns:svg="http://www.w3.org/2000/svg"
   xmlns="http://www.w3.org/2000/svg"
   xmlns:sodipodi="http://sodipodi.sourceforge.net/DTD/sodipodi-0.dtd"
   xmlns:inkscape="http://www.inkscape.org/namespaces/inkscape"
   width="130.77975mm"
   height="130.77975mm"
   viewBox="0 0 130.77975 130.77975"
   version="1.1"
   id="svg832"
   sodipodi:docname="panda_autograsp.svg"
   inkscape:version="0.92.4 (unknown)">
  <defs
     id="defs826" />
  <sodipodi:namedview
     id="base"
     pagecolor="#ffffff"
     bordercolor="#666666"
     borderopacity="1.0"
     inkscape:pageopacity="0.0"
     inkscape:pageshadow="2"
     inkscape:zoom="0.98994949"
     inkscape:cx="375.7487"
     inkscape:cy="331.48229"
     inkscape:document-units="mm"
     inkscape:current-layer="layer5"
     showgrid="true"
     inkscape:lockguides="true"
     showguides="true"
     inkscape:guide-bbox="true"
     guidetolerance="20"
     gridtolerance="10"
     inkscape:window-width="1920"
     inkscape:window-height="1004"
     inkscape:window-x="0"
     inkscape:window-y="0"
     inkscape:window-maximized="1"
     fit-margin-top="0"
     fit-margin-left="0"
     fit-margin-right="0"
     fit-margin-bottom="0">
    <sodipodi:guide
       position="31.537804,296.93645"
       orientation="0,1"
       id="guide953"
       inkscape:locked="true" />
    <sodipodi:guide
       position="-0.26727133,296.82203"
       orientation="1,0"
       id="guide955"
       inkscape:locked="true" />
    <inkscape:grid
       type="xygrid"
       id="grid957"
       originx="0"
       originy="-166.15669" />
    <sodipodi:guide
       position="130.77975,296.93646"
       orientation="1,0"
       id="guide5209"
       inkscape:locked="true" />
    <sodipodi:guide
       position="0,166.1567"
       orientation="0,1"
       id="guide5211"
       inkscape:locked="true" />
  </sodipodi:namedview>
  <metadata
     id="metadata829">
    <rdf:RDF>
      <cc:Work
         rdf:about="">
        <dc:format>image/svg+xml</dc:format>
        <dc:type
           rdf:resource="http://purl.org/dc/dcmitype/StillImage" />
        <dc:title></dc:title>
      </cc:Work>
    </rdf:RDF>
  </metadata>
  <g
     inkscape:groupmode="layer"
     id="layer2"
     inkscape:label="bg" />
  <g
     inkscape:groupmode="layer"
     id="layer3"
     inkscape:label="button">
    <rect
       transform="translate(0,-0.06355078)"
       style="fill:#094971;fill-opacity:1;stroke-width:0.26458332"
       id="rect834"
       width="130.77975"
       height="130.77975"
       x="0"
       y="0.063550778"
       rx="17" />
  </g>
  <g
     inkscape:groupmode="layer"
     id="layer5"
     inkscape:label="arm">
    <g
       id="g6159"
       transform="matrix(0.20056158,0,0,0.20056158,0.57029318,11.498303)"
       style="fill:#ffffff">
      <g
         id="g6048"
         style="fill:#ffffff">
	<g
   id="g6046"
   style="fill:#ffffff">
		<path
   id="path6044"
   d="m 408.306,166.131 v -39.637 c -4.86,0.939 -9.871,1.447 -15,1.447 -5.129,0 -10.14,-0.508 -15,-1.447 v 39.637 l -61.313,34.555 v 71.282 h 30 v -53.753 l 46.313,-26.101 46.313,26.101 v 53.753 h 30 v -71.282 z"
   inkscape:connector-curvature="0"
   style="fill:#ffffff" />

	</g>

</g>
      <g
         id="g6054"
         style="fill:#ffffff">
	<g
   id="g6052"
   style="fill:#ffffff">
		<path
   id="path6050"
   d="m 243.943,318.652 c -18.209,18.177 -43.154,28.892 -70.02,28.892 h -0.002 c -13.04,0 -25.795,-2.546 -37.914,-7.565 -12.357,-5.118 -23.126,-12.467 -32.046,-21.382 L 87.974,512 h 171.951 z"
   inkscape:connector-curvature="0"
   style="fill:#ffffff" />

	</g>

</g>
      <g
         id="g6060"
         style="fill:#ffffff">
	<g
   id="g6058"
   style="fill:#ffffff">
		<path
   id="path6056"
   d="m 325.032,88.581 c -6.788,-11.654 -10.697,-25.18 -10.697,-39.61 0,-14.43 3.909,-27.957 10.696,-39.61 H 159.627 c 6.787,11.653 10.696,25.18 10.696,39.61 0,14.43 -3.909,27.957 -10.696,39.61 z"
   inkscape:connector-curvature="0"
   style="fill:#ffffff" />

	</g>

</g>
      <g
         id="g6066"
         style="fill:#ffffff">
	<g
   id="g6064"
   style="fill:#ffffff">
		<path
   id="path6062"
   d="m 154.07,96.881 c -14.444,18.863 -37.178,31.06 -62.718,31.06 -3.547,0 -7.034,-0.258 -10.459,-0.714 l 21.66,52.292 c 18.318,-19.039 43.863,-30.307 71.423,-30.307 0.594,0 1.187,0.011 1.78,0.022 z"
   inkscape:connector-curvature="0"
   style="fill:#ffffff" />

	</g>

</g>
      <g
         id="g6072"
         style="fill:#ffffff">
	<g
   id="g6070"
   style="fill:#ffffff">
		<path
   id="path6068"
   d="m 200.411,184.494 c -8.461,-3.505 -17.354,-5.282 -26.434,-5.282 -28.079,0 -53.166,16.762 -63.912,42.704 -14.59,35.226 2.197,75.755 37.423,90.346 8.46,3.504 17.354,5.281 26.434,5.282 h 0.001 c 28.078,0 53.164,-16.762 63.91,-42.704 14.591,-35.226 -2.197,-75.755 -37.422,-90.346 z"
   inkscape:connector-curvature="0"
   style="fill:#ffffff" />

	</g>

</g>
      <g
         id="g6078"
         style="fill:#ffffff">
	<g
   id="g6076"
   style="fill:#ffffff">
		<path
   id="path6074"
   d="M 91.352,0 C 64.349,0 42.381,21.968 42.381,48.971 c 0,27.003 21.968,48.971 48.971,48.971 27.002,-10e-4 48.971,-21.969 48.971,-48.971 C 140.323,21.968 118.354,0 91.352,0 Z"
   inkscape:connector-curvature="0"
   style="fill:#ffffff" />

	</g>

</g>
      <g
         id="g6084"
         style="fill:#ffffff">
	<g
   id="g6082"
   style="fill:#ffffff">
		<path
   id="path6080"
   d="m 393.306,0 c -27.003,0 -48.971,21.968 -48.971,48.971 0,27.003 21.968,48.971 48.971,48.971 27.003,0 48.971,-21.969 48.971,-48.971 C 442.277,21.968 420.309,0 393.306,0 Z"
   inkscape:connector-curvature="0"
   style="fill:#ffffff" />

	</g>

</g>
      <g
         id="g6086"
         style="fill:#ffffff">
</g>
      <g
         id="g6088"
         style="fill:#ffffff">
</g>
      <g
         id="g6090"
         style="fill:#ffffff">
</g>
      <g
         id="g6092"
         style="fill:#ffffff">
</g>
      <g
         id="g6094"
         style="fill:#ffffff">
</g>
      <g
         id="g6096"
         style="fill:#ffffff">
</g>
      <g
         id="g6098"
         style="fill:#ffffff">
</g>
      <g
         id="g6100"
         style="fill:#ffffff">
</g>
      <g
         id="g6102"
         style="fill:#ffffff">
</g>
      <g
         id="g6104"
         style="fill:#ffffff">
</g>
      <g
         id="g6106"
         style="fill:#ffffff">
</g>
      <g
         id="g6108"
         style="fill:#ffffff">
</g>
      <g
         id="g6110"
         style="fill:#ffffff">
</g>
      <g
         id="g6112"
         style="fill:#ffffff">
</g>
      <g
         id="g6114"
         style="fill:#ffffff">
</g>
    </g>
  </g>
  <g
     inkscape:groupmode="layer"
     id="layer4"
     inkscape:label="panda">
    <g
       id="g5468"
       transform="matrix(0.1660887,0,0,0.1660887,39.540464,57.251044)">
      <g
         id="g5370">
	<path
   id="path5362"
   d="m 393.358,381.717 c -1.822,0 -3.492,-0.513 -4.701,-1.445 -27.477,-21.19 -53.666,-73.704 -61.039,-89.294 l -1.555,-3.289 3.634,0.132 c 6.426,0.233 29.115,1.132 51.267,2.936 l 1.497,0.122 0.439,1.436 c 0.249,0.814 6.171,20.166 13.657,40.111 13.723,36.601 20.488,43.761 27.532,43.761 2.514,0 4.532,0.458 6.168,1.401 l 7.17,4.128 h -44.07 v 10e-4 z"
   style="fill:#5c5a53"
   inkscape:connector-curvature="0" />

	<path
   id="path5364"
   d="m 429.154,379.505 h -35.796 c -1.349,0 -2.532,-0.354 -3.351,-0.985 -27.358,-21.099 -53.843,-74.644 -60.39,-88.489 7.929,0.288 29.847,1.194 51.167,2.929 0.398,1.306 6.325,20.591 13.701,40.243 14.243,37.986 21.398,45.196 29.603,45.196 2.279,0 3.894,0.432 5.066,1.106 z"
   style="fill:#5c5a53"
   inkscape:connector-curvature="0" />

	<path
   id="path5366"
   d="m 126.981,381.717 -0.605,-1.246 c -12.127,-24.978 -14.238,-52.684 -14.596,-60.58 l -0.132,-2.903 2.833,0.646 c 4.559,1.041 21.266,4.512 44.853,5.509 l 2.118,0.09 v 38.028 c 0,3.353 2.728,6.082 6.082,6.082 4.329,0 7.652,3.886 9.876,11.547 l 0.821,2.829 h -51.25 z"
   style="fill:#5c5a53"
   inkscape:connector-curvature="0" />

	<path
   id="path5368"
   d="m 175.286,379.505 h -46.921 c -11.832,-24.373 -13.989,-51.178 -14.376,-59.715 9.886,2.256 26.407,4.766 45.251,5.561 v 35.908 c 0,4.578 3.716,8.294 8.294,8.294 3.86,0 6.315,4.998 7.752,9.952 z"
   style="fill:#5c5a53"
   inkscape:connector-curvature="0" />

</g>
      <g
         id="g5384">
	<path
   id="path5372"
   d="m 410.244,181.571 c -0.546,-5.427 -0.086,-9.403 1.368,-11.814 1.558,-2.606 3.994,-5.497 7.236,-8.587 l 2.479,-2.364 1.133,3.232 c 1.632,4.653 2.913,8.658 3.805,11.901 l 0.387,1.404 -1.138,0.909 c -2.328,1.862 -6.736,4.443 -12.093,7.08 l -2.859,1.408 z"
   style="fill:#716e65"
   inkscape:connector-curvature="0" />

	<path
   id="path5374"
   d="m 420.374,162.772 c 1.327,3.782 2.731,8.017 3.76,11.755 -2.212,1.769 -6.591,4.313 -11.689,6.823 -0.409,-4.069 -0.299,-8.194 1.062,-10.45 1.647,-2.755 4.235,-5.619 6.867,-8.128 z"
   style="fill:#716e65"
   inkscape:connector-curvature="0" />

	<path
   id="path5376"
   d="m 251.741,381.717 -0.433,-1.65 c -4.563,-17.367 -14.383,-61.607 -7.038,-97.205 1.53,-7.453 3.224,-16.239 4.97,-25.338 l 0.039,-0.2 c 4.585,-23.808 10.291,-53.439 16.763,-77.293 9.59,-35.38 16.574,-42.068 19.133,-43.302 8.508,-4.094 17.965,-6.442 25.947,-6.442 4.432,0 8.183,0.706 11.15,2.097 3.931,1.836 6.367,4.841 7.444,9.188 0.814,3.259 2.165,7.638 3.729,12.709 l 0.439,1.427 c 7.792,25.107 24.009,77.359 6.285,95.082 -24.426,24.438 -55.706,92.564 -54.866,119.5 0.106,3.306 2.778,5.897 6.083,5.897 2.693,0 4.831,0.449 6.538,1.372 l -1.053,4.157 z"
   style="fill:#716e65"
   inkscape:connector-curvature="0" />

	<path
   id="path5378"
   d="m 331.774,156.358 c 7.663,24.693 23.61,76.093 6.834,92.867 -24.716,24.727 -56.365,93.775 -55.513,121.134 0.144,4.479 3.815,8.041 8.294,8.041 2.3,0 4.114,0.364 5.485,1.106 h -43.426 c -4.158,-15.825 -14.354,-60.611 -7.011,-96.197 1.526,-7.431 3.207,-16.146 4.976,-25.368 4.589,-23.831 10.295,-53.489 16.765,-77.331 9.864,-36.393 16.698,-41.281 17.959,-41.889 12.916,-6.215 27.392,-7.995 35.199,-4.335 3.34,1.559 5.319,4.014 6.237,7.719 0.905,3.626 2.442,8.547 4.201,14.253 z"
   style="fill:#716e65"
   inkscape:connector-curvature="0" />

	<path
   id="path5380"
   d="m 23.025,381.717 0.01,-2.222 c 0.03,-6.584 0.361,-13.654 0.981,-21.011 1.403,-16.708 5.034,-43.492 14.365,-76.192 0.907,-3.201 3.297,-5.902 6.391,-7.222 9.418,-4.026 28.093,-9.756 45.559,-12.914 8.657,-1.568 16.057,-2.363 21.995,-2.363 8.185,0 11.532,1.487 12.798,2.373 l 0.947,0.664 -0.004,1.154 c -0.064,21.677 -49.964,80.992 -69.186,102.018 -1.624,1.78 -2.278,3.91 -1.746,5.695 0.627,2.115 1.887,3.457 3.743,3.989 l 0.303,0.087 0.268,0.168 c 0.586,0.37 1.464,1.074 2.309,2.322 l 2.338,3.451 h -41.07 v 0.003 z"
   style="fill:#716e65"
   inkscape:connector-curvature="0" />

	<path
   id="path5382"
   d="m 90.723,264.332 c 25.523,-4.622 32.136,-1.051 33.131,-0.354 -0.055,18.622 -42.099,71.538 -68.606,100.532 -1.957,2.145 -3.063,5.032 -2.234,7.818 0.807,2.72 2.554,4.711 5.253,5.485 0.332,0.209 0.984,0.697 1.659,1.692 h -34.68 c 0.022,-4.866 0.221,-11.921 0.973,-20.835 1.393,-16.599 4.998,-43.216 14.287,-75.772 0.73,-2.577 2.643,-4.733 5.131,-5.795 9.312,-3.98 27.78,-9.641 45.086,-12.771 z"
   style="fill:#716e65"
   inkscape:connector-curvature="0" />

</g>
      <g
         id="g5394">
	<path
   id="path5386"
   d="m 473.093,292.84 c -10.031,-1.038 -29.534,-3.49 -47.447,-8.233 C 406.07,279.425 359,276.89 339.671,276.041 l -4.048,-0.178 2.34,-3.309 c 3.779,-5.341 7.412,-9.768 10.802,-13.157 22.926,-22.916 6.536,-75.733 -3.258,-107.292 l -0.602,-1.95 c -0.672,-2.176 -1.299,-4.207 -1.84,-6.045 l -1.026,-3.488 3.57,0.693 c 25.768,5.003 45.939,12.986 55.667,17.301 l 2.376,1.054 -1.588,2.432 c -0.3,0.458 -0.597,0.909 -0.87,1.378 -6.593,10.989 -1.653,28.206 -0.597,31.545 0.516,1.605 1.69,2.939 3.216,3.651 0.824,0.384 1.693,0.577 2.582,0.577 0.779,0 1.55,-0.154 2.297,-0.457 0.088,-0.034 7.255,-2.954 14.389,-6.759 5.756,-3.075 12.003,-6.829 14.69,-11.334 l 1.368,-2.295 1.999,1.774 c 12.997,11.531 19.79,25.549 23.201,35.281 l 0.125,0.354 v 0.377 c 0,0.139 0.008,0.285 0.022,0.431 0.467,4.726 -5.456,15.624 -9.605,21.502 -0.939,1.327 -1.304,2.938 -1.03,4.539 0.274,1.6 1.154,2.997 2.479,3.935 1.038,0.732 2.254,1.12 3.511,1.12 1.971,0 3.831,-0.962 4.975,-2.574 1.088,-1.542 2.137,-3.134 3.113,-4.729 l 1.472,-2.402 26.287,26.478 -21.349,28.474 z"
   style="fill:#ffffff"
   inkscape:connector-curvature="0" />

	<path
   id="path5388"
   d="m 469.816,241.574 22.957,23.123 -19.452,25.943 c -8.758,-0.907 -28.862,-3.341 -47.109,-8.172 -19.385,-5.132 -64.293,-7.665 -86.443,-8.638 3.66,-5.175 7.232,-9.543 10.561,-12.872 23.864,-23.853 7.232,-77.476 -2.709,-109.511 -0.896,-2.908 -1.736,-5.596 -2.433,-7.962 25.291,4.91 45.019,12.641 55.192,17.152 -0.376,0.576 -0.752,1.139 -1.095,1.726 -7.099,11.832 -1.902,29.834 -0.796,33.33 0.708,2.201 2.3,4.014 4.39,4.988 1.117,0.52 2.311,0.785 3.517,0.785 1.062,0 2.123,-0.21 3.13,-0.62 0.31,-0.122 7.487,-3.063 14.597,-6.856 6.58,-3.517 12.706,-7.387 15.548,-12.152 12.153,10.782 18.888,23.82 22.581,34.357 0,0.21 0.011,0.432 0.033,0.652 0.354,3.583 -4.567,13.426 -9.212,20.006 -2.643,3.738 -1.758,8.913 1.979,11.555 1.46,1.03 3.13,1.526 4.788,1.526 2.599,0 5.153,-1.216 6.779,-3.506 0.742,-1.05 1.903,-2.742 3.197,-4.854 z"
   style="fill:#ffffff"
   inkscape:connector-curvature="0" />

	<path
   id="path5390"
   d="m 171.538,311.261 c -23.085,0 -41.685,-3.002 -48.609,-4.293 l -3.231,-0.602 1.775,-2.767 c 16.758,-26.117 16.758,-35.952 16.758,-39.654 0,-4.975 -2.329,-9.253 -6.56,-12.045 -4.213,-2.783 -10.845,-4.194 -19.713,-4.194 -26,0 -61.85,11.853 -71.966,16.172 -6.521,2.787 -11.376,8.279 -13.317,15.073 -1.128,3.959 -2.183,7.85 -3.136,11.564 l -1.341,5.23 -2.713,-4.668 c -3.389,-5.832 -5.109,-11.985 -5.109,-18.284 0,-8.821 9.829,-61.718 56.54,-100.16 33.118,-27.248 76.745,-41.063 129.672,-41.063 20.186,0 42.032,2.027 64.928,6.024 l 2.97,0.519 -1.387,2.677 c -11.435,22.083 -20.263,64.893 -29.805,114.44 -1.73,9.019 -3.412,17.733 -4.95,25.177 -1.296,6.328 -2.167,13.205 -2.59,20.438 l -0.084,1.442 -1.354,0.503 c -15.126,5.62 -34.23,8.471 -56.778,8.471 z"
   style="fill:#ffffff"
   inkscape:connector-curvature="0" />

	<path
   id="path5392"
   d="m 265.136,139.77 c -11.368,21.951 -20.016,63.121 -30.012,115.039 -1.758,9.167 -3.428,17.815 -4.943,25.147 -1.382,6.746 -2.223,13.735 -2.632,20.757 -33.595,12.485 -81.135,8.381 -104.214,4.081 17.085,-26.629 17.107,-36.88 17.107,-40.85 0,-5.739 -2.676,-10.671 -7.553,-13.89 -19.75,-13.049 -78.813,5.408 -93.764,11.788 -7.144,3.052 -12.452,9.068 -14.575,16.499 -1.128,3.959 -2.179,7.829 -3.152,11.622 -2.61,-4.489 -4.81,-10.317 -4.81,-17.173 0,-8.648 9.687,-60.557 55.734,-98.453 45.417,-37.364 110.263,-48.976 192.814,-34.567 z"
   style="fill:#ffffff"
   inkscape:connector-curvature="0" />

</g>
      <path
         id="path5396"
         d="m 509.593,258.095 c 2.897,2.919 3.218,7.531 0.752,10.826 l -26.54,35.387 c -1.57,2.09 -4.036,3.318 -6.635,3.318 -0.221,0 -0.431,-0.012 -0.652,-0.033 -1.172,-0.088 -29.05,-2.344 -54.551,-9.09 -5.64,-1.494 -13.911,-2.765 -23.267,-3.826 9.311,29.293 21.597,60.809 27.403,67.191 17.174,1.073 23.764,15.758 23.975,25.755 0.044,2.234 -0.807,4.39 -2.367,5.983 -1.559,1.592 -3.693,2.488 -5.927,2.488 h -48.425 c -5.065,0 -9.72,-1.538 -13.48,-4.436 -25.335,-19.54 -48.668,-61.341 -59.925,-83.59 -1.305,2.687 -2.599,5.441 -3.87,8.238 -8.316,18.324 -14.111,35.586 -15.869,46.733 4.777,1.45 8.039,3.926 10.152,6.126 7.265,7.564 7.055,17.826 7,18.976 -0.177,4.445 -3.837,7.951 -8.283,7.951 h -61.927 c -3.638,0 -6.856,-2.378 -7.929,-5.85 -0.575,-1.869 -10.716,-35.266 -11.877,-71.968 -16.123,5.008 -34.237,7.022 -51.521,7.308 v 29.05 c 5.109,2.156 10.671,6.934 14.354,17.052 2.754,7.542 3.273,14.796 3.329,15.592 0.133,2.289 -0.675,4.523 -2.234,6.194 -1.57,1.67 -3.76,2.621 -6.049,2.621 h -61.927 c -3.041,0 -5.839,-1.671 -7.287,-4.347 -10.129,-18.667 -14.763,-38.804 -16.897,-53.477 -10.351,13.125 -20.148,24.504 -26.031,31.172 3.041,4.147 5.43,10.141 5.43,18.358 0,4.578 -3.716,8.294 -8.294,8.294 H 17.14 c -4.346,0 -7.962,-3.362 -8.272,-7.697 -0.111,-1.483 -2.035,-30.897 7.73,-77.83 C 10.97,305.071 0,291.912 0,272.792 0,260.804 10.992,203.323 61.783,161.534 c 23.2,-19.099 51.433,-32.191 83.9,-38.916 37.941,-7.874 82.042,-7.044 131.086,2.422 0.719,-0.476 1.438,-0.918 2.179,-1.272 21.398,-10.305 39.567,-9.024 49.431,-4.4 3.196,1.493 5.949,3.461 8.261,5.828 37.798,5.651 65.808,17.904 75.529,22.593 3.605,-3.13 6.547,-5.209 7.177,-5.662 2.079,-1.45 4.711,-1.869 7.133,-1.129 2.433,0.73 4.39,2.521 5.319,4.888 0.166,0.398 2.51,6.348 4.921,13.37 0.166,0.088 0.332,0.166 0.498,0.276 36.824,22.205 44.267,60.246 45.704,71.692 z m -16.82,6.602 -22.957,-23.123 c -1.294,2.112 -2.455,3.804 -3.196,4.855 -1.626,2.289 -4.18,3.506 -6.779,3.506 -1.659,0 -3.329,-0.497 -4.788,-1.526 -3.738,-2.643 -4.622,-7.817 -1.979,-11.555 4.645,-6.58 9.565,-16.423 9.212,-20.006 -0.022,-0.22 -0.033,-0.441 -0.033,-0.652 -3.693,-10.538 -10.428,-23.575 -22.581,-34.357 -2.842,4.766 -8.968,8.637 -15.548,12.152 -7.111,3.794 -14.287,6.735 -14.597,6.856 -1.006,0.409 -2.068,0.62 -3.13,0.62 -1.205,0 -2.4,-0.265 -3.517,-0.785 -2.09,-0.974 -3.682,-2.787 -4.39,-4.988 -1.106,-3.494 -6.303,-21.496 0.796,-33.33 0.343,-0.586 0.719,-1.15 1.095,-1.726 -10.174,-4.511 -29.902,-12.241 -55.192,-17.152 0.697,2.368 1.537,5.054 2.433,7.962 9.941,32.036 26.573,85.658 2.709,109.511 -3.329,3.329 -6.9,7.697 -10.561,12.872 22.15,0.973 67.058,3.506 86.443,8.638 18.246,4.831 38.35,7.264 47.109,8.172 z m -99.415,114.808 h 35.796 c -1.172,-0.675 -2.787,-1.106 -5.065,-1.106 -8.205,0 -15.36,-7.211 -29.603,-45.196 -7.376,-19.652 -13.303,-38.937 -13.701,-40.243 -21.321,-1.735 -43.238,-2.643 -51.167,-2.929 6.547,13.845 33.031,67.389 60.39,88.489 0.818,0.631 2.001,0.985 3.35,0.985 z m 30.775,-204.978 c -1.028,-3.738 -2.433,-7.973 -3.76,-11.755 -2.632,2.51 -5.22,5.373 -6.867,8.128 -1.36,2.256 -1.471,6.381 -1.062,10.45 5.099,-2.51 9.478,-5.055 11.689,-6.823 z m -85.525,74.699 c 16.776,-16.776 0.829,-68.174 -6.834,-92.867 -1.758,-5.706 -3.295,-10.627 -4.202,-14.255 -0.918,-3.705 -2.897,-6.158 -6.237,-7.719 -7.807,-3.661 -22.283,-1.88 -35.199,4.335 -1.261,0.608 -8.095,5.496 -17.959,41.889 -6.469,23.841 -12.175,53.5 -16.765,77.331 -1.769,9.223 -3.45,17.938 -4.976,25.368 -7.343,35.586 2.853,80.372 7.011,96.197 h 43.426 c -1.371,-0.742 -3.185,-1.106 -5.485,-1.106 -4.479,0 -8.15,-3.562 -8.294,-8.041 -0.851,-27.358 30.798,-96.405 55.514,-121.132 z m -103.485,5.584 c 9.997,-51.918 18.644,-93.089 30.012,-115.039 -82.551,-14.409 -147.397,-2.798 -192.814,34.569 -46.047,37.897 -55.734,89.805 -55.734,98.453 0,6.855 2.201,12.684 4.81,17.173 0.973,-3.793 2.024,-7.663 3.152,-11.622 2.123,-7.431 7.431,-13.447 14.575,-16.499 14.951,-6.382 74.014,-24.837 93.764,-11.788 4.877,3.218 7.553,8.15 7.553,13.89 0,3.97 -0.022,14.22 -17.107,40.85 23.079,4.302 70.619,8.406 104.214,-4.081 0.409,-7.023 1.25,-14.012 2.632,-20.757 1.515,-7.333 3.185,-15.982 4.943,-25.149 z M 128.366,379.505 h 46.921 c -1.438,-4.954 -3.893,-9.953 -7.752,-9.953 -4.578,0 -8.294,-3.716 -8.294,-8.294 V 325.35 c -18.843,-0.796 -35.365,-3.305 -45.251,-5.561 0.387,8.538 2.543,35.343 14.376,59.716 z m -4.512,-115.528 c -0.995,-0.697 -7.608,-4.267 -33.131,0.354 -17.306,3.13 -35.774,8.791 -45.085,12.772 -2.488,1.062 -4.401,3.218 -5.131,5.795 -9.289,32.555 -12.894,59.173 -14.287,75.772 -0.752,8.914 -0.951,15.968 -0.973,20.835 h 34.679 c -0.675,-0.995 -1.327,-1.483 -1.659,-1.692 -2.698,-0.774 -4.445,-2.765 -5.253,-5.485 -0.829,-2.787 0.276,-5.673 2.234,-7.818 26.507,-28.995 68.551,-81.911 68.606,-100.533 z"
         style="fill:#3d484a"
         inkscape:connector-curvature="0" />
      <g
         id="g5398">
</g>
      <g
         id="g5400">
</g>
      <g
         id="g5402">
</g>
      <g
         id="g5404">
</g>
      <g
         id="g5406">
</g>
      <g
         id="g5408">
</g>
      <g
         id="g5410">
</g>
      <g
         id="g5412">
</g>
      <g
         id="g5414">
</g>
      <g
         id="g5416">
</g>
      <g
         id="g5418">
</g>
      <g
         id="g5420">
</g>
      <g
         id="g5422">
</g>
      <g
         id="g5424">
</g>
      <g
         id="g5426">
</g>
    </g>
  </g>
  <g
     inkscape:label="Layer 1"
     inkscape:groupmode="layer"
     id="layer1"
     transform="translate(0,-0.06355078)" />
</svg>
